<svg width="300" height="150" viewBox="0 0 300 150" fill="none" xmlns="http://www.w3.org/2000/svg">
<rect width="300" height="150" fill="#EA4C88"/>
<path d="M128.624 77.864C128.901 77.864 129.115 77.992 129.264 78.248C129.435 78.504 129.52 78.856 129.52 79.304C129.52 80.1573 129.317 80.8187 128.912 81.288C127.995 82.4187 127.003 83.3467 125.936 84.072C124.891 84.7973 123.696 85.16 122.352 85.16C121.221 85.16 120.304 84.7547 119.6 83.944C118.384 84.7333 117.115 85.1387 115.792 85.16C115.515 89.2773 114.885 92.712 113.904 95.464C112.923 98.2373 111.483 99.624 109.584 99.624C108.432 99.624 107.579 99.208 107.024 98.376C106.469 97.544 106.192 96.392 106.192 94.92C106.192 92.8293 106.672 90.3867 107.632 87.592C108.592 84.8187 110.075 81.7573 112.08 78.408C112.08 75.2933 112.059 73.128 112.016 71.912C111.995 71.2933 112.24 70.8027 112.752 70.44C113.264 70.0773 113.904 69.896 114.672 69.896C115.12 69.896 115.44 69.992 115.632 70.184C115.845 70.3547 115.963 70.7067 115.984 71.24C115.984 71.7733 115.995 72.168 116.016 72.424C116.699 71.5707 117.371 70.9627 118.032 70.6C118.693 70.216 119.397 70.024 120.144 70.024C121.339 70.024 122.309 70.504 123.056 71.464C123.824 72.424 124.208 73.6827 124.208 75.24C124.208 76.3707 124.027 77.4693 123.664 78.536C123.301 79.6027 122.8 80.5733 122.16 81.448C122.608 81.576 122.981 81.64 123.28 81.64C123.984 81.64 124.656 81.384 125.296 80.872C125.936 80.36 126.757 79.5067 127.76 78.312C128.016 78.0133 128.304 77.864 128.624 77.864ZM115.952 82.088C116.72 81.9173 117.424 81.5013 118.064 80.84C118.725 80.1573 119.248 79.3253 119.632 78.344C120.016 77.3413 120.208 76.296 120.208 75.208C120.208 74.568 120.08 74.088 119.824 73.768C119.568 73.4267 119.227 73.256 118.8 73.256C118.032 73.256 117.104 74.0667 116.016 75.688C115.995 76.6267 115.984 78.0027 115.984 79.816C115.984 80.7973 115.973 81.5547 115.952 82.088ZM109.84 96.488C110.416 96.488 110.896 95.2293 111.28 92.712C111.664 90.216 111.909 87.1013 112.016 83.368C111.099 85.5013 110.373 87.5387 109.84 89.48C109.307 91.4213 109.04 93.0533 109.04 94.376C109.04 95.0587 109.125 95.5813 109.296 95.944C109.445 96.3067 109.627 96.488 109.84 96.488ZM130.046 85.16C129.086 85.16 128.297 84.7227 127.678 83.848C127.081 82.952 126.782 81.8427 126.782 80.52C126.782 78.92 126.889 77.4587 127.102 76.136C127.316 74.792 127.668 73.3733 128.158 71.88C128.372 71.24 128.67 70.7813 129.054 70.504C129.438 70.2267 130.046 70.088 130.878 70.088C131.348 70.088 131.668 70.1627 131.838 70.312C132.03 70.4613 132.126 70.6853 132.126 70.984C132.126 71.1547 132.009 71.7307 131.774 72.712C131.561 73.5013 131.39 74.216 131.262 74.856C130.836 77.096 130.622 78.5893 130.622 79.336C130.622 79.784 130.676 80.104 130.782 80.296C130.889 80.4667 131.06 80.552 131.294 80.552C131.614 80.552 132.009 80.232 132.478 79.592C132.969 78.952 133.481 77.9813 134.014 76.68C134.569 75.3787 135.102 73.7787 135.614 71.88C135.785 71.24 136.041 70.7813 136.382 70.504C136.745 70.2267 137.278 70.088 137.982 70.088C138.473 70.088 138.814 70.152 139.006 70.28C139.198 70.3867 139.294 70.6 139.294 70.92C139.294 71.4533 139.028 72.9147 138.494 75.304C137.897 78.0347 137.598 79.72 137.598 80.36C137.598 80.7653 137.684 81.0853 137.854 81.32C138.025 81.5333 138.249 81.64 138.526 81.64C138.953 81.64 139.454 81.384 140.03 80.872C140.628 80.3387 141.417 79.4853 142.398 78.312C142.654 78.0133 142.942 77.864 143.262 77.864C143.54 77.864 143.753 77.992 143.902 78.248C144.073 78.504 144.158 78.856 144.158 79.304C144.158 80.1573 143.956 80.8187 143.55 81.288C142.633 82.4187 141.641 83.3467 140.574 84.072C139.529 84.7973 138.334 85.16 136.99 85.16C135.966 85.16 135.209 84.7653 134.718 83.976C134.249 83.1867 134.014 82.0773 134.014 80.648C133.652 82.0987 133.108 83.2187 132.382 84.008C131.657 84.776 130.878 85.16 130.046 85.16ZM158.492 77.864C158.769 77.864 158.982 77.992 159.132 78.248C159.302 78.504 159.388 78.856 159.388 79.304C159.388 80.1573 159.185 80.8187 158.78 81.288C157.862 82.4187 156.87 83.3467 155.804 84.072C154.758 84.7973 153.564 85.16 152.22 85.16C151.089 85.16 150.172 84.7547 149.468 83.944C148.252 84.7333 146.982 85.1387 145.66 85.16C145.382 89.2773 144.753 92.712 143.772 95.464C142.79 98.2373 141.35 99.624 139.452 99.624C138.3 99.624 137.446 99.208 136.892 98.376C136.337 97.544 136.06 96.392 136.06 94.92C136.06 92.8293 136.54 90.3867 137.5 87.592C138.46 84.8187 139.942 81.7573 141.948 78.408C141.948 75.2933 141.926 73.128 141.884 71.912C141.862 71.2933 142.108 70.8027 142.62 70.44C143.132 70.0773 143.772 69.896 144.54 69.896C144.988 69.896 145.308 69.992 145.5 70.184C145.713 70.3547 145.83 70.7067 145.852 71.24C145.852 71.7733 145.862 72.168 145.884 72.424C146.566 71.5707 147.238 70.9627 147.9 70.6C148.561 70.216 149.265 70.024 150.012 70.024C151.206 70.024 152.177 70.504 152.924 71.464C153.692 72.424 154.076 73.6827 154.076 75.24C154.076 76.3707 153.894 77.4693 153.532 78.536C153.169 79.6027 152.668 80.5733 152.028 81.448C152.476 81.576 152.849 81.64 153.148 81.64C153.852 81.64 154.524 81.384 155.164 80.872C155.804 80.36 156.625 79.5067 157.628 78.312C157.884 78.0133 158.172 77.864 158.492 77.864ZM145.82 82.088C146.588 81.9173 147.292 81.5013 147.932 80.84C148.593 80.1573 149.116 79.3253 149.5 78.344C149.884 77.3413 150.076 76.296 150.076 75.208C150.076 74.568 149.948 74.088 149.692 73.768C149.436 73.4267 149.094 73.256 148.668 73.256C147.9 73.256 146.972 74.0667 145.884 75.688C145.862 76.6267 145.852 78.0027 145.852 79.816C145.852 80.7973 145.841 81.5547 145.82 82.088ZM139.708 96.488C140.284 96.488 140.764 95.2293 141.148 92.712C141.532 90.216 141.777 87.1013 141.884 83.368C140.966 85.5013 140.241 87.5387 139.708 89.48C139.174 91.4213 138.908 93.0533 138.908 94.376C138.908 95.0587 138.993 95.5813 139.164 95.944C139.313 96.3067 139.494 96.488 139.708 96.488ZM178.602 77.864C178.879 77.864 179.092 77.992 179.242 78.248C179.412 78.504 179.498 78.856 179.498 79.304C179.498 80.1573 179.295 80.8187 178.89 81.288C178.015 82.3547 177.044 83.272 175.978 84.04C174.932 84.7867 173.876 85.16 172.81 85.16C171.423 85.16 170.41 84.6693 169.77 83.688C169.151 82.7067 168.842 81.4053 168.842 79.784C168.842 78.952 168.927 77.928 169.098 76.712C169.29 75.496 169.535 74.3013 169.834 73.128C167.7 73.128 165.172 73.224 162.25 73.416C161.78 76.4027 161.546 79.1867 161.546 81.768C161.546 83.752 161.652 85.8213 161.866 87.976C162.1 90.152 162.442 91.24 162.89 91.24C163.103 91.24 163.327 90.8667 163.562 90.12C163.796 89.3733 163.988 88.3493 164.138 87.048C164.287 85.7467 164.362 84.3067 164.362 82.728C164.362 81 164.266 79.1333 164.074 77.128C164.031 76.5307 164.127 76.0933 164.362 75.816C164.618 75.5173 164.991 75.368 165.482 75.368C165.93 75.368 166.26 75.4853 166.474 75.72C166.687 75.9547 166.815 76.3493 166.858 76.904C166.964 78.4613 167.018 80.3173 167.018 82.472C167.018 85.9493 166.591 88.9253 165.738 91.4C164.906 93.8747 163.604 95.112 161.834 95.112C160.319 95.112 159.231 94.0133 158.57 91.816C157.908 89.64 157.578 86.3653 157.578 81.992C157.578 79.4107 157.78 76.648 158.186 73.704C158.036 73.7253 157.844 73.736 157.61 73.736C156.948 73.736 156.5 73.6187 156.266 73.384C156.052 73.1493 155.946 72.7867 155.946 72.296C155.946 71.7627 156.084 71.336 156.362 71.016C156.66 70.696 157.215 70.504 158.026 70.44C158.175 70.4187 158.41 70.408 158.73 70.408C159.306 67.528 160.042 64.9147 160.938 62.568C161.834 60.2213 162.858 58.3653 164.01 57C165.162 55.6133 166.378 54.92 167.658 54.92C168.66 54.92 169.428 55.3147 169.962 56.104C170.516 56.872 170.794 57.864 170.794 59.08C170.794 63.368 169.066 67.016 165.61 70.024C168.212 69.9173 170.314 69.864 171.914 69.864C172.511 69.864 173.002 69.9813 173.386 70.216C173.77 70.4293 173.962 70.856 173.962 71.496C173.962 71.9227 173.887 72.5733 173.738 73.448C173.61 74.3227 173.46 75.1973 173.29 76.072C172.906 77.8853 172.714 79.08 172.714 79.656C172.714 80.296 172.799 80.7867 172.97 81.128C173.14 81.4693 173.428 81.64 173.834 81.64C174.196 81.64 174.655 81.3947 175.21 80.904C175.786 80.392 176.628 79.528 177.738 78.312C177.994 78.0133 178.282 77.864 178.602 77.864ZM167.05 57.992C166.538 57.992 165.887 59.1013 165.098 61.32C164.308 63.5387 163.594 66.2267 162.954 69.384C164.02 68.6373 164.906 67.7093 165.61 66.6C166.335 65.4907 166.868 64.3493 167.21 63.176C167.572 61.9813 167.754 60.8827 167.754 59.88C167.754 58.6213 167.519 57.992 167.05 57.992ZM173.258 67.976C172.362 67.976 171.69 67.7733 171.242 67.368C170.794 66.9413 170.57 66.3547 170.57 65.608C170.57 64.8613 170.858 64.2427 171.434 63.752C172.031 63.24 172.767 62.984 173.642 62.984C174.431 62.984 175.071 63.176 175.562 63.56C176.052 63.944 176.298 64.488 176.298 65.192C176.298 66.0453 176.02 66.728 175.466 67.24C174.911 67.7307 174.175 67.976 173.258 67.976ZM179.012 85.16C178.201 85.16 177.625 84.7333 177.284 83.88C176.964 83.0267 176.804 81.6613 176.804 79.784C176.804 77.0107 177.198 74.376 177.988 71.88C178.18 71.2613 178.489 70.8133 178.916 70.536C179.364 70.2373 179.982 70.088 180.772 70.088C181.198 70.088 181.497 70.1413 181.668 70.248C181.838 70.3547 181.924 70.5573 181.924 70.856C181.924 71.1973 181.764 71.9653 181.444 73.16C181.23 74.0133 181.06 74.76 180.932 75.4C180.804 76.04 180.697 76.8293 180.612 77.768C181.316 75.9333 182.105 74.44 182.98 73.288C183.854 72.136 184.708 71.3147 185.54 70.824C186.393 70.3333 187.172 70.088 187.876 70.088C189.262 70.088 189.956 70.7813 189.956 72.168C189.956 73 189.721 74.504 189.252 76.68C188.846 78.536 188.644 79.7627 188.644 80.36C188.644 81.2133 188.953 81.64 189.572 81.64C189.998 81.64 190.5 81.384 191.076 80.872C191.673 80.3387 192.462 79.4853 193.444 78.312C193.7 78.0133 193.988 77.864 194.308 77.864C194.585 77.864 194.798 77.992 194.948 78.248C195.118 78.504 195.204 78.856 195.204 79.304C195.204 80.1573 195.001 80.8187 194.596 81.288C193.678 82.4187 192.686 83.3467 191.62 84.072C190.574 84.7973 189.38 85.16 188.036 85.16C186.948 85.16 186.126 84.8507 185.572 84.232C185.017 83.592 184.74 82.6747 184.74 81.48C184.74 80.8827 184.889 79.816 185.188 78.28C185.465 76.936 185.604 76.008 185.604 75.496C185.604 75.1547 185.486 74.984 185.252 74.984C184.974 74.984 184.58 75.3467 184.068 76.072C183.577 76.776 183.065 77.7147 182.532 78.888C182.02 80.0613 181.604 81.2987 181.284 82.6C181.049 83.6027 180.772 84.2853 180.452 84.648C180.153 84.9893 179.673 85.16 179.012 85.16ZM210.631 77.864C210.908 77.864 211.121 77.992 211.271 78.248C211.441 78.504 211.527 78.856 211.527 79.304C211.527 80.1573 211.324 80.8187 210.919 81.288C210.044 82.3547 209.084 83.272 208.039 84.04C206.993 84.7867 205.959 85.16 204.935 85.16C203.313 85.16 202.076 84.2107 201.223 82.312C200.327 83.4427 199.537 84.2 198.855 84.584C198.193 84.968 197.415 85.16 196.519 85.16C195.217 85.16 194.14 84.68 193.287 83.72C192.455 82.7387 192.039 81.4693 192.039 79.912C192.039 78.2053 192.401 76.6267 193.127 75.176C193.852 73.704 194.844 72.5093 196.103 71.592C197.383 70.6533 198.812 70.0987 200.391 69.928C200.796 65.7893 201.564 62.2587 202.695 59.336C203.847 56.392 205.351 54.92 207.207 54.92C208.124 54.92 208.881 55.336 209.479 56.168C210.097 57 210.407 58.2587 210.407 59.944C210.407 62.3333 209.82 65.128 208.647 68.328C207.473 71.528 205.905 74.8133 203.943 78.184C204.028 79.4213 204.209 80.3067 204.487 80.84C204.785 81.3733 205.159 81.64 205.607 81.64C206.183 81.64 206.769 81.384 207.367 80.872C207.964 80.36 208.764 79.5067 209.767 78.312C210.023 78.0133 210.311 77.864 210.631 77.864ZM206.855 58.056C206.449 58.056 206.044 58.7813 205.639 60.232C205.233 61.6613 204.881 63.5387 204.583 65.864C204.305 68.1893 204.103 70.6213 203.975 73.16C206.364 67.9547 207.559 63.7733 207.559 60.616C207.559 59.8053 207.484 59.176 207.335 58.728C207.207 58.28 207.047 58.056 206.855 58.056ZM197.639 81.928C198.044 81.928 198.449 81.768 198.855 81.448C199.26 81.1067 199.772 80.488 200.391 79.592C200.177 78.44 200.071 77.1493 200.071 75.72C200.071 75.208 200.092 74.376 200.135 73.224C198.961 73.5867 197.98 74.376 197.191 75.592C196.423 76.7867 196.039 78.12 196.039 79.592C196.039 81.1493 196.572 81.928 197.639 81.928ZM223.036 77.864C223.313 77.864 223.526 77.992 223.676 78.248C223.846 78.504 223.932 78.856 223.932 79.304C223.932 80.1573 223.729 80.8187 223.324 81.288C222.534 82.248 221.414 83.1333 219.964 83.944C218.534 84.7547 216.998 85.16 215.356 85.16C213.116 85.16 211.377 84.552 210.14 83.336C208.902 82.12 208.284 80.456 208.284 78.344C208.284 76.872 208.593 75.5067 209.212 74.248C209.83 72.968 210.684 71.9547 211.772 71.208C212.881 70.4613 214.129 70.088 215.516 70.088C216.753 70.088 217.745 70.4613 218.492 71.208C219.238 71.9333 219.612 72.9253 219.612 74.184C219.612 75.656 219.078 76.9253 218.012 77.992C216.966 79.0373 215.185 79.8693 212.668 80.488C213.201 81.4693 214.214 81.96 215.708 81.96C216.668 81.96 217.756 81.6293 218.972 80.968C220.209 80.2853 221.276 79.4 222.172 78.312C222.428 78.0133 222.716 77.864 223.036 77.864ZM214.972 73.224C214.182 73.224 213.51 73.6827 212.956 74.6C212.422 75.5173 212.156 76.6267 212.156 77.928V77.992C213.414 77.6933 214.406 77.2453 215.132 76.648C215.857 76.0507 216.22 75.3573 216.22 74.568C216.22 74.1627 216.102 73.8427 215.868 73.608C215.654 73.352 215.356 73.224 214.972 73.224ZM234.094 74.472C234.563 74.472 234.958 74.6427 235.278 74.984C235.619 75.304 235.79 75.7093 235.79 76.2C235.79 76.4773 235.726 76.776 235.598 77.096C235.257 77.8853 234.777 78.5467 234.158 79.08C233.539 79.6133 232.857 79.88 232.11 79.88C231.513 79.88 231.001 79.6667 230.574 79.24C230.169 78.8133 229.966 78.2373 229.966 77.512C229.966 77.1067 229.987 76.6693 230.03 76.2C230.073 75.8587 230.094 75.624 230.094 75.496C230.094 75.3253 230.051 75.1973 229.966 75.112C229.902 75.0267 229.817 74.984 229.71 74.984C229.411 74.984 229.006 75.3467 228.494 76.072C227.982 76.776 227.47 77.7147 226.958 78.888C226.446 80.0613 226.03 81.2987 225.71 82.6C225.475 83.624 225.209 84.3067 224.91 84.648C224.611 84.9893 224.121 85.16 223.438 85.16C222.627 85.16 222.051 84.7333 221.71 83.88C221.39 83.0267 221.23 81.6613 221.23 79.784C221.23 77.0107 221.625 74.376 222.414 71.88C222.606 71.2613 222.915 70.8133 223.342 70.536C223.79 70.2373 224.409 70.088 225.198 70.088C225.625 70.088 225.923 70.1413 226.094 70.248C226.265 70.3547 226.35 70.5573 226.35 70.856C226.35 71.1973 226.19 71.9653 225.87 73.16C225.657 74.0133 225.486 74.76 225.358 75.4C225.23 76.04 225.123 76.8293 225.038 77.768C225.742 75.9333 226.531 74.44 227.406 73.288C228.281 72.136 229.134 71.3147 229.966 70.824C230.798 70.3333 231.555 70.088 232.238 70.088C232.857 70.088 233.326 70.2693 233.646 70.632C233.987 70.9733 234.158 71.4853 234.158 72.168C234.158 72.5733 234.041 73.3413 233.806 74.472H234.094Z" fill="white"/>
<path d="M90.675 87.2381C90.125 85.5771 88.8431 84.7353 87.6056 83.9213C86.5288 83.2126 85.5119 82.5429 84.8469 81.3404C83.0138 78.0098 82.0069 76 79.0038 76C76.0007 76 74.9907 78.0104 73.1532 81.3398C72.4876 82.5449 71.4657 83.2159 70.3876 83.926C69.1501 84.7406 67.8707 85.5804 67.3189 87.2381C67.1041 87.8359 66.996 88.4707 67.0001 89.1102C67.0001 91.8062 69.0282 94 71.2751 94C73.522 94 76.4819 92.8002 79.01 92.8002C81.5382 92.8002 84.4569 94 86.7319 94C89.0069 94 91 91.8062 91 89.1102C91.0018 88.4703 90.8916 87.8355 90.675 87.2381Z" fill="white"/>
<path d="M67.5 82C69.433 82 71 79.9853 71 77.5C71 75.0147 69.433 73 67.5 73C65.567 73 64 75.0147 64 77.5C64 79.9853 65.567 82 67.5 82Z" fill="white"/>
<path d="M74.5 76C76.433 76 78 73.7614 78 71C78 68.2386 76.433 66 74.5 66C72.567 66 71 68.2386 71 71C71 73.7614 72.567 76 74.5 76Z" fill="white"/>
<path d="M83.5 76C85.433 76 87 73.7614 87 71C87 68.2386 85.433 66 83.5 66C81.567 66 80 68.2386 80 71C80 73.7614 81.567 76 83.5 76Z" fill="white"/>
<path d="M90.5 82C92.433 82 94 79.9853 94 77.5C94 75.0147 92.433 73 90.5 73C88.567 73 87 75.0147 87 77.5C87 79.9853 88.567 82 90.5 82Z" fill="white"/>
</svg>
